<svg width="119" height="119" viewBox="0 0 119 119" fill="none" xmlns="http://www.w3.org/2000/svg">
<path d="M64.5 97.1948C46.1 76.3948 13.8333 63.5281 0 59.6948C5.33333 55.0281 19.1 46.1948 31.5 48.1948C43.9 50.1948 58.6667 81.6948 64.5 97.1948Z" fill="#006CB5"/>
<path d="M57 43.1948C35.4 36.7948 17.3333 42.5281 11 46.1948C43 67.3948 60 89.0281 64.5 97.1948C64.1 67.5948 59.3333 48.8615 57 43.1948Z" fill="#0098DB"/>
<circle cx="42.5" cy="26.6948" r="10" fill="#006CB5"/>
<path d="M64.8756 109.498C70.888 82.3864 62.3314 48.7193 57.3016 35.2748C64.2119 36.8465 79.4501 42.7919 85.1206 53.9993C90.7911 65.2066 73.9867 95.6684 64.8756 109.498Z" fill="#F58634"/>
<path d="M104.154 71.6903C96.6357 50.4537 81.3781 39.2074 74.689 36.2388C76.347 74.5884 68.8376 101.057 64.8756 109.498C88.5874 91.7763 100.941 76.9088 104.154 71.6903Z" fill="#FDBC58"/>
<circle cx="108.98" cy="50.2611" r="10" transform="rotate(54 108.98 50.2611)" fill="#F58634"/>
</svg>
